<?xml version="1.0" encoding="utf-8"?>
<!-- Generator: Adobe Illustrator 16.2.1, SVG Export Plug-In . SVG Version: 6.00 Build 0)  -->
<!DOCTYPE svg PUBLIC "-//W3C//DTD SVG 1.1//EN" "http://www.w3.org/Graphics/SVG/1.1/DTD/svg11.dtd">
<svg version="1.1" id="Layer_1" xmlns="http://www.w3.org/2000/svg" xmlns:xlink="http://www.w3.org/1999/xlink" x="0px" y="0px"
	 width="30px" height="30px" viewBox="0 0 30 30" enable-background="new 0 0 30 30" xml:space="preserve">
<path fill="#3A3A3A" d="M27,8.5c0,0.553-0.447,1-1,1H4c-0.553,0-1-0.447-1-1l0,0c0-0.553,0.447-1,1-1h22C26.553,7.5,27,7.947,27,8.5
	L27,8.5z"/>
<path fill="#3A3A3A" d="M27,15.5c0,0.553-0.447,1-1,1H4c-0.553,0-1-0.447-1-1l0,0c0-0.553,0.447-1,1-1h22
	C26.553,14.5,27,14.947,27,15.5L27,15.5z"/>
<path fill="#3A3A3A" d="M27,22.5c0,0.553-0.447,1-1,1H4c-0.553,0-1-0.447-1-1l0,0c0-0.553,0.447-1,1-1h22
	C26.553,21.5,27,21.947,27,22.5L27,22.5z"/>
</svg>
